<svg xmlns="http://www.w3.org/2000/svg" width="20" height="19.999" viewBox="0 0 20 19.999">
  <g id="Dummy_Image" data-name="Dummy Image" transform="translate(1708 -6752)">
    <g id="profile-user" transform="translate(-1708 6752)">
      <path id="Path_36" data-name="Path 36" d="M10,0A10,10,0,1,0,20,10,10,10,0,0,0,10,0Zm0,2.99A3.308,3.308,0,1,1,6.693,6.3,3.308,3.308,0,0,1,10,2.991Zm0,14.395a7.339,7.339,0,0,1-4.779-1.762,1.409,1.409,0,0,1-.495-1.071,3.336,3.336,0,0,1,3.352-3.335h3.849a3.331,3.331,0,0,1,3.347,3.335,1.406,1.406,0,0,1-.494,1.071A7.336,7.336,0,0,1,10,17.386Z" transform="translate(0 -0.001)" fill="#d8dcdf"/>
    </g>
  </g>
</svg>
