<svg xmlns="http://www.w3.org/2000/svg" width="13.5" height="13.499" viewBox="0 0 13.5 13.499">
  <g id="Group_3042" data-name="Group 3042" transform="translate(-126.121 -122.545)">
    <g id="Group_3042-2" data-name="Group 3042" transform="translate(126.371 122.795)">
      <path id="Path_11772" data-name="Path 11772" d="M139.371,129.3a6.5,6.5,0,1,1-6.5-6.5A6.484,6.484,0,0,1,139.371,129.3Zm-.8,0a5.7,5.7,0,1,0-5.7,5.711A5.709,5.709,0,0,0,138.572,129.291Z" transform="translate(-126.371 -122.795)" fill="#343434" stroke="#000" stroke-width="0.5"/>
      <path id="Path_11773" data-name="Path 11773" d="M518.877,282.405c0,.545,0,1.09,0,1.635a.172.172,0,0,0,.086.164q1.062.711,2.12,1.429a.743.743,0,0,1,.171.164.38.38,0,0,1-.022.436.359.359,0,0,1-.412.134.69.69,0,0,1-.167-.078c-.785-.521-1.569-1.046-2.355-1.566a.5.5,0,0,1-.243-.46c.011-1.1.015-2.2.022-3.294a2.876,2.876,0,0,1,.013-.3.393.393,0,0,1,.782,0,1.357,1.357,0,0,1,.006.139Q518.878,281.607,518.877,282.405Z" transform="translate(-511.981 -277.871)" fill="#343434" stroke="#000" stroke-width="0.5"/>
    </g>
  </g>
</svg>
